<?xml version="1.0" standalone="no"?>
<!DOCTYPE svg PUBLIC "-//W3C//DTD SVG 20010904//EN"
 "http://www.w3.org/TR/2001/REC-SVG-20010904/DTD/svg10.dtd">
<svg version="1.0" xmlns="http://www.w3.org/2000/svg"
 width="500.000000pt" height="500.000000pt" viewBox="0 0 500.000000 500.000000"
 preserveAspectRatio="xMidYMid meet">
<metadata>
Created by potrace 1.14, written by Peter Selinger 2001-2017
</metadata>
<g transform="translate(0.000000,500.000000) scale(0.100000,-0.100000)"
fill="#000000" stroke="none">
<path d="M3789 4038 c0 -13 -1 -174 -2 -358 l-1 -335 362 -3 362 -2 0 360 0
360 -360 0 -360 0 -1 -22z"/>
<path d="M3325 4021 c6 -11 4 -13 -8 -8 -10 3 -17 2 -17 -4 0 -6 -4 -8 -10 -4
-5 3 -8 -10 -5 -34 2 -22 0 -43 -6 -46 -5 -4 -6 -12 -2 -18 12 -19 11 -57 -1
-57 -8 0 -8 -2 0 -8 13 -9 15 -72 2 -89 -5 -7 -5 -14 2 -18 6 -4 9 -20 6 -37
-4 -27 -2 -30 20 -25 14 2 24 -1 24 -7 0 -6 5 -4 10 4 7 11 10 11 10 2 0 -7 4
-11 8 -8 5 3 68 6 141 7 l132 1 -2 67 c-1 38 1 73 5 79 4 7 4 12 -1 12 -9 0
-8 134 2 149 3 6 2 11 -4 11 -6 0 -8 6 -5 13 3 9 -9 12 -48 12 -29 -1 -59 4
-67 9 -11 8 -13 8 -8 0 7 -12 -107 -13 -119 -1 -4 4 -13 2 -21 -4 -10 -9 -17
-8 -30 2 -14 12 -16 12 -8 0z"/>
<path d="M3210 3560 c0 -6 -4 -8 -10 -5 -7 4 -10 -78 -10 -238 l0 -245 246 0
c135 0 243 2 240 6 -3 3 -1 11 5 19 7 7 7 13 2 13 -11 0 -11 45 -1 56 4 3 3
16 -1 28 -9 26 -8 87 2 103 4 6 3 14 -1 17 -8 4 -9 55 -2 64 3 3 3 41 0 45 -7
7 -5 79 2 83 5 3 4 12 -3 20 -6 8 -8 14 -5 14 4 0 1 6 -6 14 -9 9 -17 11 -25
5 -7 -7 -14 -6 -18 1 -5 8 -11 8 -21 -1 -8 -6 -14 -7 -14 -2 0 5 -9 9 -20 9
-11 0 -20 -4 -20 -9 0 -5 -7 -4 -15 3 -12 10 -15 10 -15 0 0 -9 -3 -10 -13 -1
-10 8 -17 7 -25 -1 -7 -7 -12 -8 -12 -2 0 5 -9 10 -20 10 -11 0 -20 -4 -20 -9
0 -5 -7 -4 -15 3 -12 10 -15 10 -15 -1 0 -9 -3 -10 -11 -2 -7 7 -21 8 -38 3
-15 -4 -35 -3 -44 2 -11 6 -17 5 -17 -1 0 -7 -8 -7 -26 -1 -18 7 -23 7 -18 -1
4 -8 0 -8 -15 0 -15 8 -21 9 -21 1z"/>
<path d="M890 3461 c-8 -6 -17 -8 -20 -7 -3 2 -13 -5 -22 -16 -10 -10 -15 -18
-12 -18 4 0 1 -7 -6 -15 -6 -8 -9 -18 -7 -23 3 -4 2 -14 -3 -22 -4 -7 -4 -24
1 -37 5 -12 5 -23 1 -23 -5 0 -5 -25 -2 -55 3 -30 3 -61 -1 -67 -4 -7 -3 -18
3 -25 7 -9 7 -13 0 -13 -6 0 -7 -13 -2 -34 4 -19 4 -40 -1 -47 -4 -7 -3 -19 3
-26 7 -9 7 -13 0 -13 -6 0 -7 -13 -2 -34 4 -19 4 -40 -1 -47 -4 -7 -3 -19 3
-26 7 -9 7 -13 0 -13 -6 0 -7 -13 -2 -34 4 -19 4 -40 -1 -47 -4 -7 -3 -19 3
-26 7 -9 7 -13 -2 -13 -9 0 -9 -4 -2 -13 7 -8 7 -18 2 -27 -5 -9 -5 -19 2 -27
7 -9 7 -13 0 -13 -6 0 -7 -13 -2 -34 4 -19 4 -40 -1 -47 -4 -7 -3 -19 3 -26 7
-9 7 -13 0 -13 -6 0 -7 -13 -2 -34 4 -19 4 -40 -1 -47 -4 -7 -3 -19 3 -26 6
-8 6 -13 1 -13 -5 0 -10 -7 -10 -15 0 -8 4 -15 9 -15 5 0 4 -9 -2 -20 -8 -14
-8 -20 0 -20 8 0 8 -6 0 -20 -8 -14 -8 -20 0 -20 8 0 8 -6 0 -20 -6 -11 -7
-20 -2 -20 10 0 8 -48 -2 -57 -3 -4 -1 -12 5 -20 7 -8 8 -13 1 -13 -6 0 -7
-13 -2 -34 4 -19 4 -40 -1 -47 -4 -7 -3 -19 3 -26 7 -9 7 -13 0 -13 -6 0 -7
-13 -2 -34 4 -19 4 -40 -1 -47 -4 -7 -3 -19 3 -26 6 -8 6 -13 1 -13 -5 0 -10
-7 -10 -15 0 -8 4 -15 9 -15 5 0 4 -9 -2 -20 -8 -14 -8 -20 0 -20 8 0 8 -6 0
-20 -8 -14 -8 -20 0 -20 8 0 8 -6 0 -20 -8 -14 -8 -20 0 -20 8 0 8 -6 0 -20
-8 -14 -8 -20 0 -20 8 0 8 -6 0 -20 -8 -14 -8 -20 0 -20 8 0 8 -6 0 -20 -8
-14 -8 -20 0 -20 8 0 8 -6 0 -20 -6 -11 -7 -20 -2 -20 5 0 8 -13 6 -29 -2 -18
4 -39 18 -56 14 -18 16 -25 7 -23 -8 2 -16 0 -17 -4 -2 -4 -20 -25 -40 -47
-96 -105 -109 -121 -104 -125 3 -3 -3 -8 -12 -12 -9 -3 -16 -13 -16 -21 0 -8
-4 -11 -10 -8 -5 3 -10 2 -10 -3 0 -9 -30 -48 -70 -91 -8 -9 -23 -29 -33 -44
-10 -15 -22 -25 -28 -22 -5 4 -9 3 -8 -2 1 -4 -1 -16 -5 -25 -10 -23 36 -124
77 -166 60 -63 -34 -59 1767 -60 1133 -1 1658 2 1686 9 51 13 107 66 140 131
24 46 31 93 17 100 -5 2 -63 68 -129 148 -67 80 -138 163 -157 185 -20 22 -37
43 -37 48 0 4 -11 7 -25 7 l-24 0 19 33 c17 29 19 57 21 287 1 140 1 279 0
307 l-1 53 -88 -2 c-48 -1 -93 2 -100 6 -12 7 -17 -11 -13 -43 2 -8 -2 -10
-10 -5 -8 5 -9 3 -3 -7 11 -19 13 -58 2 -65 -4 -3 -5 -11 -1 -17 11 -18 10
-127 -2 -127 -5 0 -3 -5 5 -10 13 -9 13 -11 0 -20 -8 -5 -10 -10 -4 -10 6 0
11 -16 11 -35 0 -22 -4 -32 -11 -28 -8 5 -8 3 0 -8 12 -16 12 -48 1 -66 -5 -7
-4 -13 1 -13 6 0 9 -11 8 -25 0 -14 -5 -25 -9 -25 -5 0 -5 -4 -2 -10 3 -5 1
-10 -5 -10 -6 0 -9 -4 -6 -8 3 -5 -8 -16 -25 -26 -22 -13 -29 -14 -29 -4 0 9
-3 10 -8 2 -4 -7 -54 -11 -145 -10 -85 1 -137 -3 -137 -9 0 -7 -3 -7 -8 0 -10
14 -1674 14 -1684 0 -5 -7 -8 -7 -8 0 0 13 -63 13 -72 0 -5 -7 -8 -7 -8 0 0 6
-71 9 -197 8 -127 -1 -208 3 -225 10 -40 17 -56 61 -54 150 1 44 -3 79 -9 81
-7 3 -7 7 0 13 12 10 15 103 2 103 -4 0 -5 5 -1 12 11 18 10 187 -1 192 -7 3
-7 7 0 13 12 10 15 103 2 103 -4 0 -5 5 -1 12 9 14 12 108 4 108 -4 0 -7 7 -7
15 0 8 3 12 6 10 4 -2 6 19 6 46 0 27 -3 49 -8 49 -4 0 -5 5 -1 12 9 14 12
108 4 108 -4 0 -7 7 -7 15 0 8 3 12 6 10 4 -2 6 19 6 46 0 27 -3 49 -8 49 -4
0 -5 5 -1 12 9 14 12 108 4 108 -4 0 -7 7 -7 15 0 8 3 12 7 10 10 -6 6 90 -5
98 -7 4 -6 10 1 15 13 9 13 64 -1 74 -6 5 -6 8 1 8 7 0 10 19 8 50 -1 28 2 50
7 50 6 0 8 4 5 9 -7 11 29 53 38 44 3 -3 6 -2 6 4 0 7 20 10 50 10 28 -1 50 2
50 7 0 5 6 3 13 -3 8 -6 16 -8 20 -5 9 9 97 10 97 1 0 -4 9 -3 20 3 11 6 20 7
20 3 0 -4 16 -8 35 -8 19 0 35 4 35 9 0 5 6 3 13 -3 8 -6 16 -8 20 -5 9 9 97
10 97 1 0 -4 9 -3 20 3 14 8 20 8 20 0 0 -8 6 -8 20 0 14 8 20 8 20 0 0 -8 6
-8 20 0 11 6 20 7 20 3 0 -4 16 -8 35 -8 19 0 35 4 35 9 0 5 6 3 13 -3 8 -6
16 -8 20 -5 9 9 97 10 97 1 0 -4 9 -3 20 3 11 6 20 7 20 2 0 -5 7 -9 15 -9 8
0 15 5 15 10 0 5 5 5 13 -1 8 -7 18 -7 27 -2 9 5 19 5 27 -2 9 -7 13 -7 13 2
0 9 4 9 13 2 8 -7 18 -7 27 -2 9 5 19 5 27 -2 9 -7 13 -7 13 2 0 9 4 9 13 2 8
-7 18 -7 27 -2 9 5 19 5 27 -2 9 -7 13 -7 13 2 0 9 4 9 13 2 7 -6 19 -7 26 -3
7 5 28 5 47 1 21 -5 34 -4 34 2 0 7 5 6 13 -1 8 -6 16 -8 20 -5 9 9 97 10 97
1 0 -4 9 -3 20 3 11 6 20 7 20 2 0 -4 9 -8 19 -8 11 0 17 4 15 8 -3 4 -1 8 4
8 4 0 8 15 7 33 0 17 4 38 9 46 8 11 8 13 -2 7 -9 -6 -12 -3 -10 10 3 18 -25
19 -802 21 -479 2 -811 -1 -820 -6z m1120 -2181 c15 4 33 4 41 0 7 -5 21 -4
30 1 12 6 20 5 24 -1 5 -8 11 -8 20 0 8 7 15 7 19 1 5 -8 34 -8 44 -1 7 7 29
5 40 -3 8 -6 12 -5 12 3 0 8 4 9 13 4 11 -8 32 -10 47 -4 20 7 41 7 46 -1 4
-6 11 -6 19 1 9 7 15 8 19 1 4 -6 15 -7 30 -1 12 4 29 5 36 0 7 -4 25 -4 40 0
15 4 33 4 40 0 7 -4 25 -4 40 0 15 4 33 4 40 0 7 -4 25 -4 40 0 15 4 33 4 41
0 7 -5 21 -4 30 1 12 6 20 5 24 -1 5 -8 11 -8 19 -1 7 6 16 7 20 3 7 -7 12 -8
38 -11 6 0 9 -4 5 -7 -3 -3 0 -13 6 -20 28 -34 33 -41 50 -72 l18 -32 -559 0
-560 0 11 24 c7 13 15 22 19 20 7 -5 12 10 9 29 0 4 4 7 9 7 6 0 9 3 8 8 -6
16 39 48 72 51 19 2 37 5 39 7 2 2 11 0 19 -5 8 -5 27 -5 42 -1z m632 -207
c17 -21 17 -30 1 -58 -11 -18 -24 -19 -289 -20 -173 0 -285 4 -298 10 -24 12
-33 50 -16 71 10 12 61 14 300 14 261 0 288 -2 302 -17z"/>
<path d="M2706 3419 c3 -6 -5 -7 -20 -3 -30 7 -27 24 -30 -171 -2 -176 -2
-177 38 -174 17 2 37 0 44 -5 6 -4 12 -4 12 1 0 10 92 9 108 -1 7 -4 12 -2 12
4 0 8 6 8 20 0 11 -6 20 -7 20 -3 0 9 57 9 66 0 12 -12 33 17 22 31 -7 8 -7
12 0 12 12 0 10 33 -3 42 -6 5 -5 8 4 8 11 0 11 3 1 15 -7 8 -8 15 -3 15 5 0
9 9 9 20 0 11 -4 20 -9 20 -4 0 -5 6 -1 12 11 17 12 48 3 48 -4 0 -4 14 1 30
5 19 5 28 -1 25 -5 -4 -5 4 1 19 6 16 6 27 -1 31 -5 4 -7 11 -4 16 4 5 -22 8
-60 6 -37 -2 -69 1 -72 6 -2 4 -12 2 -21 -5 -13 -11 -14 -11 -8 0 7 12 4 12
-14 2 -18 -9 -24 -9 -30 0 -5 8 -10 8 -14 2 -3 -6 -20 -7 -41 -2 -21 5 -33 4
-29 -1z"/>
<path d="M2795 2974 c-10 -8 -16 -14 -12 -14 4 0 3 -10 -4 -21 -6 -12 -7 -19
-2 -16 10 6 10 -193 0 -210 -4 -6 -3 -14 2 -17 4 -3 7 -19 5 -35 -3 -29 -2
-30 37 -28 22 2 43 -1 45 -5 3 -4 10 -5 17 -3 22 8 107 11 107 4 0 -3 18 -3
40 1 22 4 40 3 40 -2 0 -5 7 -5 18 0 9 5 23 7 31 4 11 -4 13 2 8 27 -4 19 -2
31 4 31 6 0 7 6 3 12 -7 11 -9 66 -4 93 1 6 2 12 1 15 -7 20 -4 150 3 150 5 0
6 3 2 7 -4 4 -73 8 -154 8 -81 0 -152 3 -157 7 -6 3 -19 0 -30 -8z"/>
<path d="M3576 2979 c3 -5 1 -9 -3 -9 -5 0 -9 -9 -10 -20 -1 -13 2 -18 10 -13
9 5 9 3 2 -8 -6 -8 -10 -29 -9 -47 2 -20 -2 -30 -8 -26 -7 5 -8 2 -2 -7 13
-22 16 -60 5 -73 -6 -7 -7 -16 -3 -20 11 -12 11 -106 -1 -99 -6 4 -7 1 -1 -8
13 -21 15 -81 2 -73 -7 5 -8 2 -2 -7 12 -19 14 -72 2 -86 -5 -7 -5 -14 1 -17
5 -4 9 -24 7 -47 -2 -22 -1 -38 1 -35 3 2 17 1 31 -4 15 -4 37 -3 50 1 12 5
22 5 22 1 0 -4 110 -6 245 -4 184 2 245 6 246 15 1 15 1 569 0 580 -1 4 -116
7 -256 5 -141 -2 -255 1 -255 6 0 5 -7 3 -16 -5 -9 -7 -18 -9 -22 -3 -9 12
-44 15 -36 3z"/>
<path d="M2356 2842 c-4 -4 -19 -7 -33 -7 l-26 -1 -1 -132 c-1 -73 3 -132 7
-132 5 0 5 -5 2 -10 -4 -6 3 -9 17 -6 13 2 30 0 39 -5 9 -5 19 -5 23 -1 12 11
86 10 79 -1 -4 -6 -1 -7 7 -2 7 4 34 9 59 9 l46 1 -1 47 c-1 30 2 45 9 41 6
-4 7 -1 1 8 -12 20 -12 63 1 71 7 5 6 8 -1 8 -7 0 -10 19 -9 50 2 28 -1 51 -6
51 -5 1 -17 2 -26 3 -10 1 -24 5 -32 10 -10 6 -12 6 -7 -3 10 -15 -25 -11 -36
4 -5 7 -8 6 -8 0 0 -12 -69 -14 -86 -3 -6 4 -14 4 -18 0z"/>
<path d="M3104 2585 c-14 -21 -15 -28 -5 -35 10 -5 10 -9 2 -15 -9 -5 -9 -11
1 -23 7 -9 8 -13 3 -10 -14 9 -14 -84 0 -94 6 -5 5 -8 -4 -8 -10 0 -11 -3 -2
-14 9 -11 9 -16 0 -21 -8 -6 -8 -9 1 -15 8 -5 9 -13 4 -21 -12 -19 -12 -49 -1
-49 5 0 4 -7 -3 -15 -10 -13 -9 -15 9 -15 14 0 20 4 15 12 -5 7 -3 8 7 2 23
-14 132 -15 141 -1 5 7 8 8 8 1 0 -16 142 -14 158 3 11 11 11 17 2 28 -7 8 -8
15 -3 15 5 0 9 9 9 20 0 11 -4 20 -9 20 -5 0 -5 6 2 13 8 10 7 17 -1 25 -7 7
-8 12 -2 12 6 0 11 7 11 15 0 8 -4 15 -9 15 -5 0 -6 4 -3 10 11 19 14 50 4 50
-6 0 -7 6 -3 12 12 19 12 48 1 48 -5 0 -4 6 2 14 12 14 6 21 -28 41 -10 6 -12
4 -7 -4 10 -15 -25 -11 -37 4 -6 6 -10 6 -14 -2 -3 -9 -10 -10 -23 -3 -13 7
-21 7 -25 0 -5 -8 -11 -7 -21 1 -8 6 -14 7 -14 2 0 -5 -7 -10 -15 -10 -8 0
-15 5 -15 11 0 7 -3 7 -8 1 -10 -14 -32 -17 -46 -6 -7 6 -17 6 -26 1 -9 -5
-19 -5 -26 1 -9 7 -18 3 -30 -16z"/>
<path d="M2203 2484 c5 -9 -10 -11 -53 -9 l-59 3 0 -166 c0 -120 3 -162 11
-154 6 6 18 8 27 4 15 -7 36 -8 54 -2 19 6 33 5 45 -3 8 -6 12 -5 12 2 0 7 5
9 12 5 17 -11 48 -12 54 -3 2 5 16 4 30 -1 31 -12 37 -12 30 -1 -4 5 3 7 14 4
23 -6 22 -8 25 70 1 36 -2 57 -9 57 -8 0 -8 2 0 8 11 7 15 171 4 173 -3 1 -27
2 -55 3 -27 0 -55 4 -61 8 -6 4 -14 4 -18 1 -12 -12 -40 -12 -55 0 -10 8 -13
8 -8 1z"/>
<path d="M2577 2478 c-2 -7 0 -23 4 -36 5 -13 5 -21 1 -18 -10 6 -9 -64 1 -80
3 -6 3 -14 0 -18 -11 -10 -10 -90 0 -103 7 -9 48 -13 145 -13 74 0 132 3 129
7 -4 3 -2 12 4 20 6 7 7 13 2 13 -11 0 -10 50 1 68 4 7 3 12 -2 12 -7 0 -9 53
-2 70 1 3 1 10 0 15 -2 6 -3 24 -4 40 l-1 30 -137 3 c-103 2 -137 -1 -141 -10z"/>
</g>
</svg>
